# xmcd
#
# Track frame offsets:
#	150
#	17230
#	34299
#	54027
#	74174
#	93919
#	113458
#	132504
#	151370
#	172709
#	191186
#	210234
#	230836
#
# Disc length: 3826 seconds
#
# Revision: 5
# Processed by: cddbd v1.5.2PL0 Copyright (c) Steve Scherf et al.
# Submitted via: EasyCDDAExtractor 15.3.0.1
#
DISCID=ac0ef00d
DTITLE=Gisselle - Lo Mejor De Gisselle
DYEAR=1999
DGENRE=Latin
TTITLE0=Fuego En La Cintura
TTITLE1=Lo Mio Es Mio
TTITLE2=Esa No Es Mejor Que Yo
TTITLE3=El Negro
TTITLE4=A Que Vuelve
TTITLE5=Quiero Estar Contigo
TTITLE6=Perfume De Mujer En Tu Camisa
TTITLE7=Pesadilla
TTITLE8=Lo Quiero A Morir
TTITLE9=Dame Un Beso
TTITLE10=Huele A Peligro
TTITLE11=Corazon Encadenado
TTITLE12=Sugar's Gisselle Mega Mix
EXTD=
EXTT0=
EXTT1=
EXTT2=
EXTT3=
EXTT4=
EXTT5=
EXTT6=
EXTT7=
EXTT8=
EXTT9=
EXTT10=
EXTT11=
EXTT12=
PLAYORDER=
